# xmcd
#
# Track frame offsets: 
#        150
#        11849
#        25102
#        38363
#        51558
#        65680
#        77400
#        89489
#        100441
#        115463
#        121729
#        133842
#        150103
#
# Disc length: 4015 seconds
#
# Revision: 0
# Processed by: cddbd v1.5.1PL0 Copyright (c) Steve Scherf et al.
# Submitted via: ExactAudioCopy v0.95a5
#
DISCID=a20fad0d
DTITLE=Lords Of The Highway - Lost In Sin
DYEAR=2002
DGENRE=Punk
TTITLE0=R'N'R
TTITLE1=Gone Missin'
TTITLE2=Spy On The Run
TTITLE3=Drink, Drank, Drunk
TTITLE4=Damn U Miller
TTITLE5=Devil Made Me Do It
TTITLE6=Dry Gulched
TTITLE7=Flo
TTITLE8=Twist Of Cain
TTITLE9=Lord's Polka
TTITLE10=Ready To Rock
TTITLE11=Zombie Truckers
TTITLE12=Silly
EXTD=
EXTT0=
EXTT1=
EXTT2=
EXTT3=
EXTT4=
EXTT5=
EXTT6=
EXTT7=
EXTT8=
EXTT9=
EXTT10=
EXTT11=
EXTT12=
PLAYORDER=
